<mxfile host="app.diagrams.net" agent="Mozilla/5.0 (Windows NT 10.0; Win64; x64) AppleWebKit/537.36 (KHTML, like Gecko) Chrome/131.0.0.0 Safari/537.36" version="24.8.8">
  <diagram name="Page-1" id="2DvhA6kGZF2NZzAoFt9y">
    <mxGraphModel dx="880" dy="1568" grid="1" gridSize="10" guides="1" tooltips="1" connect="1" arrows="1" fold="1" page="1" pageScale="1" pageWidth="850" pageHeight="1100" math="0" shadow="0">
      <root>
        <mxCell id="0" />
        <mxCell id="1" parent="0" />
        <mxCell id="E59YueBohIeMxZVzbbnm-45" value="User" style="swimlane;startSize=20;html=1;" vertex="1" parent="1">
          <mxGeometry x="300" y="-1050" width="280" height="1520" as="geometry" />
        </mxCell>
        <mxCell id="E59YueBohIeMxZVzbbnm-53" value="" style="ellipse;html=1;shape=startState;fillColor=#000000;strokeColor=#ff0000;" vertex="1" parent="E59YueBohIeMxZVzbbnm-45">
          <mxGeometry x="120" y="30" width="30" height="30" as="geometry" />
        </mxCell>
        <mxCell id="E59YueBohIeMxZVzbbnm-54" value="" style="edgeStyle=orthogonalEdgeStyle;html=1;verticalAlign=bottom;endArrow=open;endSize=8;strokeColor=#ff0000;rounded=0;" edge="1" source="E59YueBohIeMxZVzbbnm-53" parent="E59YueBohIeMxZVzbbnm-45" target="E59YueBohIeMxZVzbbnm-55">
          <mxGeometry relative="1" as="geometry">
            <mxPoint x="135" y="120" as="targetPoint" />
          </mxGeometry>
        </mxCell>
        <mxCell id="E59YueBohIeMxZVzbbnm-55" value="Transfer&lt;div&gt;money&lt;/div&gt;" style="rounded=1;whiteSpace=wrap;html=1;arcSize=40;fontColor=#000000;fillColor=#ffffc0;strokeColor=#ff0000;" vertex="1" parent="E59YueBohIeMxZVzbbnm-45">
          <mxGeometry x="75" y="120" width="120" height="40" as="geometry" />
        </mxCell>
        <mxCell id="E59YueBohIeMxZVzbbnm-56" value="" style="edgeStyle=orthogonalEdgeStyle;html=1;verticalAlign=bottom;endArrow=open;endSize=8;strokeColor=#ff0000;rounded=0;" edge="1" source="E59YueBohIeMxZVzbbnm-55" parent="E59YueBohIeMxZVzbbnm-45" target="E59YueBohIeMxZVzbbnm-57">
          <mxGeometry relative="1" as="geometry">
            <mxPoint x="135" y="220" as="targetPoint" />
          </mxGeometry>
        </mxCell>
        <mxCell id="E59YueBohIeMxZVzbbnm-57" value="Choose method of&lt;div&gt;transfering&lt;/div&gt;" style="rounded=1;whiteSpace=wrap;html=1;arcSize=40;fontColor=#000000;fillColor=#ffffc0;strokeColor=#ff0000;" vertex="1" parent="E59YueBohIeMxZVzbbnm-45">
          <mxGeometry x="75" y="220" width="120" height="40" as="geometry" />
        </mxCell>
        <mxCell id="E59YueBohIeMxZVzbbnm-58" value="" style="edgeStyle=orthogonalEdgeStyle;html=1;verticalAlign=bottom;endArrow=open;endSize=8;strokeColor=#ff0000;rounded=0;" edge="1" source="E59YueBohIeMxZVzbbnm-57" parent="E59YueBohIeMxZVzbbnm-45" target="E59YueBohIeMxZVzbbnm-59">
          <mxGeometry relative="1" as="geometry">
            <mxPoint x="135" y="320" as="targetPoint" />
          </mxGeometry>
        </mxCell>
        <mxCell id="E59YueBohIeMxZVzbbnm-59" value="Method of&lt;br&gt;&lt;div&gt;&lt;span style=&quot;background-color: initial;&quot;&gt;transfering&lt;/span&gt;&amp;nbsp;&lt;/div&gt;" style="rhombus;whiteSpace=wrap;html=1;fontColor=#000000;fillColor=#ffffc0;strokeColor=#ff0000;" vertex="1" parent="E59YueBohIeMxZVzbbnm-45">
          <mxGeometry x="70" y="320" width="130" height="60" as="geometry" />
        </mxCell>
        <mxCell id="E59YueBohIeMxZVzbbnm-63" value="" style="edgeStyle=orthogonalEdgeStyle;html=1;align=left;verticalAlign=bottom;endArrow=open;endSize=8;strokeColor=#ff0000;rounded=0;exitX=0;exitY=0.5;exitDx=0;exitDy=0;" edge="1" parent="E59YueBohIeMxZVzbbnm-45" source="E59YueBohIeMxZVzbbnm-59" target="E59YueBohIeMxZVzbbnm-69">
          <mxGeometry x="-0.5556" y="-20" relative="1" as="geometry">
            <mxPoint x="40" y="410" as="targetPoint" />
            <mxPoint x="75" y="390" as="sourcePoint" />
            <Array as="points">
              <mxPoint x="40" y="350" />
            </Array>
            <mxPoint as="offset" />
          </mxGeometry>
        </mxCell>
        <mxCell id="E59YueBohIeMxZVzbbnm-65" value="Bank&#39;s&lt;div&gt;account&lt;/div&gt;" style="edgeStyle=orthogonalEdgeStyle;html=1;align=left;verticalAlign=bottom;endArrow=open;endSize=8;strokeColor=#ff0000;rounded=0;exitX=1;exitY=0.5;exitDx=0;exitDy=0;" edge="1" parent="E59YueBohIeMxZVzbbnm-45" source="E59YueBohIeMxZVzbbnm-59" target="E59YueBohIeMxZVzbbnm-67">
          <mxGeometry x="-1" relative="1" as="geometry">
            <mxPoint x="230" y="410" as="targetPoint" />
            <mxPoint x="230" y="340" as="sourcePoint" />
            <Array as="points">
              <mxPoint x="230" y="350" />
            </Array>
          </mxGeometry>
        </mxCell>
        <mxCell id="E59YueBohIeMxZVzbbnm-66" value="Vodafone&lt;div&gt;wallet&lt;/div&gt;" style="text;html=1;align=center;verticalAlign=middle;resizable=0;points=[];autosize=1;strokeColor=none;fillColor=none;" vertex="1" parent="E59YueBohIeMxZVzbbnm-45">
          <mxGeometry x="25" y="315" width="70" height="40" as="geometry" />
        </mxCell>
        <mxCell id="E59YueBohIeMxZVzbbnm-67" value="Submit card&#39;s&lt;div&gt;details&lt;/div&gt;" style="rounded=1;whiteSpace=wrap;html=1;arcSize=40;fontColor=#000000;fillColor=#ffffc0;strokeColor=#ff0000;" vertex="1" parent="E59YueBohIeMxZVzbbnm-45">
          <mxGeometry x="160" y="410" width="120" height="40" as="geometry" />
        </mxCell>
        <mxCell id="E59YueBohIeMxZVzbbnm-69" value="Submit wallet&#39;s&lt;div&gt;details&lt;/div&gt;" style="rounded=1;whiteSpace=wrap;html=1;arcSize=40;fontColor=#000000;fillColor=#ffffc0;strokeColor=#ff0000;" vertex="1" parent="E59YueBohIeMxZVzbbnm-45">
          <mxGeometry y="410" width="110" height="40" as="geometry" />
        </mxCell>
        <mxCell id="E59YueBohIeMxZVzbbnm-82" value="Reject card&#39;s&amp;nbsp;&lt;div&gt;details&lt;/div&gt;" style="rounded=1;whiteSpace=wrap;html=1;arcSize=40;fontColor=#000000;fillColor=#ffffc0;strokeColor=#ff0000;" vertex="1" parent="E59YueBohIeMxZVzbbnm-45">
          <mxGeometry x="140" y="610" width="120" height="40" as="geometry" />
        </mxCell>
        <mxCell id="E59YueBohIeMxZVzbbnm-83" value="" style="edgeStyle=orthogonalEdgeStyle;html=1;verticalAlign=bottom;endArrow=open;endSize=8;strokeColor=#ff0000;rounded=0;" edge="1" source="E59YueBohIeMxZVzbbnm-82" parent="E59YueBohIeMxZVzbbnm-45" target="E59YueBohIeMxZVzbbnm-57">
          <mxGeometry relative="1" as="geometry">
            <mxPoint x="210" y="176" as="targetPoint" />
            <Array as="points">
              <mxPoint x="150" y="380" />
              <mxPoint x="250" y="380" />
              <mxPoint x="250" y="240" />
            </Array>
          </mxGeometry>
        </mxCell>
        <mxCell id="E59YueBohIeMxZVzbbnm-93" value="Reject wallet&#39;s&lt;div&gt;details&lt;/div&gt;" style="rounded=1;whiteSpace=wrap;html=1;arcSize=25;fontColor=#000000;fillColor=#ffffc0;strokeColor=#ff0000;" vertex="1" parent="E59YueBohIeMxZVzbbnm-45">
          <mxGeometry x="5" y="610" width="120" height="40" as="geometry" />
        </mxCell>
        <mxCell id="E59YueBohIeMxZVzbbnm-96" value="" style="edgeStyle=orthogonalEdgeStyle;html=1;verticalAlign=bottom;endArrow=open;endSize=8;strokeColor=#ff0000;rounded=0;entryX=0;entryY=0.5;entryDx=0;entryDy=0;" edge="1" parent="E59YueBohIeMxZVzbbnm-45" source="E59YueBohIeMxZVzbbnm-93" target="E59YueBohIeMxZVzbbnm-57">
          <mxGeometry relative="1" as="geometry">
            <mxPoint x="64.5" y="730" as="targetPoint" />
            <mxPoint x="64.5" y="650" as="sourcePoint" />
            <Array as="points">
              <mxPoint x="120" y="380" />
              <mxPoint x="20" y="380" />
              <mxPoint x="20" y="240" />
            </Array>
          </mxGeometry>
        </mxCell>
        <mxCell id="E59YueBohIeMxZVzbbnm-99" value="" style="shape=rhombus;html=1;verticalLabelPosition=top;verticalAlignment=bottom;" vertex="1" parent="E59YueBohIeMxZVzbbnm-45">
          <mxGeometry x="115" y="730" width="40" height="40" as="geometry" />
        </mxCell>
        <mxCell id="E59YueBohIeMxZVzbbnm-100" value="" style="edgeStyle=elbowEdgeStyle;html=1;elbow=horizontal;align=right;verticalAlign=bottom;rounded=0;labelBackgroundColor=none;endArrow=open;endSize=12;" edge="1" source="E59YueBohIeMxZVzbbnm-99" parent="E59YueBohIeMxZVzbbnm-45" target="E59YueBohIeMxZVzbbnm-104">
          <mxGeometry relative="1" as="geometry">
            <mxPoint x="135" y="810" as="targetPoint" />
          </mxGeometry>
        </mxCell>
        <mxCell id="E59YueBohIeMxZVzbbnm-104" value="Process transfering&amp;nbsp;&lt;div&gt;confirmation&lt;/div&gt;" style="rounded=1;whiteSpace=wrap;html=1;arcSize=40;fontColor=#000000;fillColor=#ffffc0;strokeColor=#ff0000;" vertex="1" parent="E59YueBohIeMxZVzbbnm-45">
          <mxGeometry x="60" y="790" width="150" height="50" as="geometry" />
        </mxCell>
        <mxCell id="E59YueBohIeMxZVzbbnm-105" value="" style="edgeStyle=orthogonalEdgeStyle;html=1;verticalAlign=bottom;endArrow=open;endSize=8;strokeColor=#ff0000;rounded=0;" edge="1" source="E59YueBohIeMxZVzbbnm-104" parent="E59YueBohIeMxZVzbbnm-45" target="E59YueBohIeMxZVzbbnm-165">
          <mxGeometry relative="1" as="geometry">
            <mxPoint x="135" y="870" as="targetPoint" />
          </mxGeometry>
        </mxCell>
        <mxCell id="E59YueBohIeMxZVzbbnm-111" value="Send notification to&lt;div&gt;the bank to update&lt;/div&gt;&lt;div&gt;balance&lt;/div&gt;" style="rounded=1;whiteSpace=wrap;html=1;arcSize=40;fontColor=#000000;fillColor=#ffffc0;strokeColor=#ff0000;" vertex="1" parent="E59YueBohIeMxZVzbbnm-45">
          <mxGeometry x="130" y="950" width="120" height="50" as="geometry" />
        </mxCell>
        <mxCell id="E59YueBohIeMxZVzbbnm-131" value="Send notification to&lt;div&gt;Vodafone to update&lt;/div&gt;&lt;div&gt;balance&lt;/div&gt;" style="rounded=1;whiteSpace=wrap;html=1;arcSize=40;fontColor=#000000;fillColor=#ffffc0;strokeColor=#ff0000;" vertex="1" parent="E59YueBohIeMxZVzbbnm-45">
          <mxGeometry x="5" y="950" width="120" height="50" as="geometry" />
        </mxCell>
        <mxCell id="E59YueBohIeMxZVzbbnm-152" value="Recieve bank&#39;s&lt;div&gt;confirmation&lt;/div&gt;" style="rounded=1;whiteSpace=wrap;html=1;arcSize=40;fontColor=#000000;fillColor=#ffffc0;strokeColor=#ff0000;" vertex="1" parent="E59YueBohIeMxZVzbbnm-45">
          <mxGeometry x="140" y="1180" width="100" height="40" as="geometry" />
        </mxCell>
        <mxCell id="E59YueBohIeMxZVzbbnm-153" value="" style="edgeStyle=orthogonalEdgeStyle;html=1;verticalAlign=bottom;endArrow=open;endSize=8;strokeColor=#ff0000;rounded=0;entryX=0.855;entryY=0.7;entryDx=0;entryDy=0;entryPerimeter=0;" edge="1" source="E59YueBohIeMxZVzbbnm-152" parent="E59YueBohIeMxZVzbbnm-45" target="E59YueBohIeMxZVzbbnm-157">
          <mxGeometry relative="1" as="geometry">
            <mxPoint x="190" y="1260" as="targetPoint" />
          </mxGeometry>
        </mxCell>
        <mxCell id="E59YueBohIeMxZVzbbnm-154" value="Recieve Vodafone&#39;s&lt;div&gt;confirmation&lt;/div&gt;" style="rounded=1;whiteSpace=wrap;html=1;arcSize=40;fontColor=#000000;fillColor=#ffffc0;strokeColor=#ff0000;" vertex="1" parent="E59YueBohIeMxZVzbbnm-45">
          <mxGeometry x="20" y="1180" width="110" height="40" as="geometry" />
        </mxCell>
        <mxCell id="E59YueBohIeMxZVzbbnm-156" value="" style="edgeStyle=orthogonalEdgeStyle;html=1;verticalAlign=bottom;endArrow=open;endSize=8;strokeColor=#ff0000;rounded=0;exitX=0.5;exitY=1;exitDx=0;exitDy=0;entryX=0.125;entryY=0.8;entryDx=0;entryDy=0;entryPerimeter=0;" edge="1" parent="E59YueBohIeMxZVzbbnm-45" source="E59YueBohIeMxZVzbbnm-154" target="E59YueBohIeMxZVzbbnm-157">
          <mxGeometry relative="1" as="geometry">
            <mxPoint x="75" y="1260" as="targetPoint" />
            <mxPoint x="200" y="1230" as="sourcePoint" />
          </mxGeometry>
        </mxCell>
        <mxCell id="E59YueBohIeMxZVzbbnm-157" value="" style="shape=line;html=1;strokeWidth=6;strokeColor=#ff0000;" vertex="1" parent="E59YueBohIeMxZVzbbnm-45">
          <mxGeometry x="35" y="1270" width="200" height="10" as="geometry" />
        </mxCell>
        <mxCell id="E59YueBohIeMxZVzbbnm-158" value="" style="edgeStyle=orthogonalEdgeStyle;html=1;verticalAlign=bottom;endArrow=open;endSize=8;strokeColor=#ff0000;rounded=0;" edge="1" source="E59YueBohIeMxZVzbbnm-157" parent="E59YueBohIeMxZVzbbnm-45" target="E59YueBohIeMxZVzbbnm-159">
          <mxGeometry relative="1" as="geometry">
            <mxPoint x="135" y="1320" as="targetPoint" />
          </mxGeometry>
        </mxCell>
        <mxCell id="E59YueBohIeMxZVzbbnm-159" value="Confirm transaction is&lt;div&gt;done successfully&lt;/div&gt;" style="rounded=1;whiteSpace=wrap;html=1;arcSize=40;fontColor=#000000;fillColor=#ffffc0;strokeColor=#ff0000;" vertex="1" parent="E59YueBohIeMxZVzbbnm-45">
          <mxGeometry x="75" y="1320" width="120" height="40" as="geometry" />
        </mxCell>
        <mxCell id="E59YueBohIeMxZVzbbnm-160" value="" style="edgeStyle=orthogonalEdgeStyle;html=1;verticalAlign=bottom;endArrow=open;endSize=8;strokeColor=#ff0000;rounded=0;" edge="1" source="E59YueBohIeMxZVzbbnm-159" parent="E59YueBohIeMxZVzbbnm-45" target="E59YueBohIeMxZVzbbnm-161">
          <mxGeometry relative="1" as="geometry">
            <mxPoint x="135" y="1410" as="targetPoint" />
          </mxGeometry>
        </mxCell>
        <mxCell id="E59YueBohIeMxZVzbbnm-161" value="" style="ellipse;html=1;shape=endState;fillColor=#000000;strokeColor=#ff0000;" vertex="1" parent="E59YueBohIeMxZVzbbnm-45">
          <mxGeometry x="120" y="1410" width="30" height="30" as="geometry" />
        </mxCell>
        <mxCell id="E59YueBohIeMxZVzbbnm-165" value="Method of&lt;br&gt;&lt;div&gt;&lt;span style=&quot;background-color: initial;&quot;&gt;transfering&lt;/span&gt;&amp;nbsp;&lt;/div&gt;" style="rhombus;whiteSpace=wrap;html=1;fontColor=#000000;fillColor=#ffffc0;strokeColor=#ff0000;" vertex="1" parent="E59YueBohIeMxZVzbbnm-45">
          <mxGeometry x="80" y="870" width="110" height="60" as="geometry" />
        </mxCell>
        <mxCell id="E59YueBohIeMxZVzbbnm-166" value="Bank&#39;s&lt;div&gt;account&lt;/div&gt;" style="edgeStyle=orthogonalEdgeStyle;html=1;align=left;verticalAlign=bottom;endArrow=open;endSize=8;strokeColor=#ff0000;rounded=0;entryX=0.833;entryY=0;entryDx=0;entryDy=0;entryPerimeter=0;" edge="1" source="E59YueBohIeMxZVzbbnm-165" parent="E59YueBohIeMxZVzbbnm-45" target="E59YueBohIeMxZVzbbnm-111">
          <mxGeometry x="-1" relative="1" as="geometry">
            <mxPoint x="210" y="900" as="targetPoint" />
            <Array as="points">
              <mxPoint x="230" y="900" />
            </Array>
          </mxGeometry>
        </mxCell>
        <mxCell id="E59YueBohIeMxZVzbbnm-167" value="&lt;span style=&quot;font-size: 12px; text-align: center; background-color: rgb(251, 251, 251);&quot;&gt;Vodafone&lt;/span&gt;&lt;div style=&quot;font-size: 12px; text-align: center; background-color: rgb(251, 251, 251);&quot;&gt;wallet&lt;/div&gt;" style="edgeStyle=orthogonalEdgeStyle;html=1;align=left;verticalAlign=top;endArrow=open;endSize=8;strokeColor=#ff0000;rounded=0;entryX=0.183;entryY=0.02;entryDx=0;entryDy=0;entryPerimeter=0;" edge="1" source="E59YueBohIeMxZVzbbnm-165" parent="E59YueBohIeMxZVzbbnm-45" target="E59YueBohIeMxZVzbbnm-131">
          <mxGeometry x="-0.0385" y="-40" relative="1" as="geometry">
            <mxPoint x="30" y="900" as="targetPoint" />
            <Array as="points">
              <mxPoint x="27" y="900" />
            </Array>
            <mxPoint as="offset" />
          </mxGeometry>
        </mxCell>
        <mxCell id="E59YueBohIeMxZVzbbnm-46" value="Bank" style="swimlane;startSize=20;html=1;" vertex="1" parent="1">
          <mxGeometry x="580" y="-1050" width="260" height="1520" as="geometry">
            <mxRectangle x="580" y="-1060" width="70" height="30" as="alternateBounds" />
          </mxGeometry>
        </mxCell>
        <mxCell id="E59YueBohIeMxZVzbbnm-73" value="Validate card&#39;s&lt;div&gt;details&lt;/div&gt;" style="rounded=1;whiteSpace=wrap;html=1;arcSize=40;fontColor=#000000;fillColor=#ffffc0;strokeColor=#ff0000;" vertex="1" parent="E59YueBohIeMxZVzbbnm-46">
          <mxGeometry x="70" y="500" width="120" height="40" as="geometry" />
        </mxCell>
        <mxCell id="E59YueBohIeMxZVzbbnm-74" value="" style="edgeStyle=orthogonalEdgeStyle;html=1;verticalAlign=bottom;endArrow=open;endSize=8;strokeColor=#ff0000;rounded=0;entryX=0.5;entryY=0;entryDx=0;entryDy=0;" edge="1" source="E59YueBohIeMxZVzbbnm-73" parent="E59YueBohIeMxZVzbbnm-46" target="E59YueBohIeMxZVzbbnm-78">
          <mxGeometry relative="1" as="geometry">
            <mxPoint x="130" y="600" as="targetPoint" />
          </mxGeometry>
        </mxCell>
        <mxCell id="E59YueBohIeMxZVzbbnm-78" value="Card&#39;s details" style="rhombus;whiteSpace=wrap;html=1;fontColor=#000000;fillColor=#ffffc0;strokeColor=#ff0000;" vertex="1" parent="E59YueBohIeMxZVzbbnm-46">
          <mxGeometry x="75" y="600" width="110" height="60" as="geometry" />
        </mxCell>
        <mxCell id="E59YueBohIeMxZVzbbnm-113" value="Update balance" style="rounded=1;whiteSpace=wrap;html=1;arcSize=40;fontColor=#000000;fillColor=#ffffc0;strokeColor=#ff0000;" vertex="1" parent="E59YueBohIeMxZVzbbnm-46">
          <mxGeometry x="65" y="1010" width="120" height="40" as="geometry" />
        </mxCell>
        <mxCell id="E59YueBohIeMxZVzbbnm-114" value="" style="edgeStyle=orthogonalEdgeStyle;html=1;verticalAlign=bottom;endArrow=open;endSize=8;strokeColor=#ff0000;rounded=0;entryX=0.5;entryY=0.5;entryDx=0;entryDy=0;entryPerimeter=0;" edge="1" source="E59YueBohIeMxZVzbbnm-113" parent="E59YueBohIeMxZVzbbnm-46" target="E59YueBohIeMxZVzbbnm-115">
          <mxGeometry relative="1" as="geometry">
            <mxPoint x="125" y="1080" as="targetPoint" />
          </mxGeometry>
        </mxCell>
        <mxCell id="E59YueBohIeMxZVzbbnm-121" style="edgeStyle=orthogonalEdgeStyle;rounded=0;orthogonalLoop=1;jettySize=auto;html=1;exitX=0.75;exitY=0.5;exitDx=0;exitDy=0;exitPerimeter=0;" edge="1" parent="E59YueBohIeMxZVzbbnm-46" source="E59YueBohIeMxZVzbbnm-115">
          <mxGeometry relative="1" as="geometry">
            <mxPoint x="168" y="1120" as="targetPoint" />
          </mxGeometry>
        </mxCell>
        <mxCell id="E59YueBohIeMxZVzbbnm-123" style="edgeStyle=orthogonalEdgeStyle;rounded=0;orthogonalLoop=1;jettySize=auto;html=1;exitX=0.25;exitY=0.5;exitDx=0;exitDy=0;exitPerimeter=0;" edge="1" parent="E59YueBohIeMxZVzbbnm-46" source="E59YueBohIeMxZVzbbnm-115">
          <mxGeometry relative="1" as="geometry">
            <mxPoint x="83" y="1120" as="targetPoint" />
          </mxGeometry>
        </mxCell>
        <mxCell id="E59YueBohIeMxZVzbbnm-115" value="" style="shape=line;html=1;strokeWidth=6;strokeColor=#ff0000;" vertex="1" parent="E59YueBohIeMxZVzbbnm-46">
          <mxGeometry x="40" y="1080" width="170" height="10" as="geometry" />
        </mxCell>
        <mxCell id="E59YueBohIeMxZVzbbnm-124" value="Send mobile&lt;div&gt;message&lt;/div&gt;" style="rounded=1;whiteSpace=wrap;html=1;arcSize=40;fontColor=#000000;fillColor=#ffffc0;strokeColor=#ff0000;" vertex="1" parent="E59YueBohIeMxZVzbbnm-46">
          <mxGeometry x="140" y="1120" width="110" height="40" as="geometry" />
        </mxCell>
        <mxCell id="E59YueBohIeMxZVzbbnm-125" value="" style="edgeStyle=orthogonalEdgeStyle;html=1;verticalAlign=bottom;endArrow=open;endSize=8;strokeColor=#ff0000;rounded=0;" edge="1" source="E59YueBohIeMxZVzbbnm-124" parent="E59YueBohIeMxZVzbbnm-46" target="E59YueBohIeMxZVzbbnm-128">
          <mxGeometry relative="1" as="geometry">
            <mxPoint x="195" y="1200" as="targetPoint" />
          </mxGeometry>
        </mxCell>
        <mxCell id="E59YueBohIeMxZVzbbnm-126" value="Respond to the&lt;div&gt;system&lt;/div&gt;" style="rounded=1;whiteSpace=wrap;html=1;arcSize=40;fontColor=#000000;fillColor=#ffffc0;strokeColor=#ff0000;" vertex="1" parent="E59YueBohIeMxZVzbbnm-46">
          <mxGeometry x="20" y="1120" width="110" height="40" as="geometry" />
        </mxCell>
        <mxCell id="E59YueBohIeMxZVzbbnm-128" value="" style="shape=sumEllipse;perimeter=ellipsePerimeter;whiteSpace=wrap;html=1;backgroundOutline=1;" vertex="1" parent="E59YueBohIeMxZVzbbnm-46">
          <mxGeometry x="167.5" y="1200" width="55" height="50" as="geometry" />
        </mxCell>
        <mxCell id="E59YueBohIeMxZVzbbnm-68" value="" style="edgeStyle=orthogonalEdgeStyle;html=1;verticalAlign=bottom;endArrow=open;endSize=8;strokeColor=#ff0000;rounded=0;entryX=0;entryY=0.5;entryDx=0;entryDy=0;exitX=0.5;exitY=1;exitDx=0;exitDy=0;" edge="1" source="E59YueBohIeMxZVzbbnm-67" parent="1" target="E59YueBohIeMxZVzbbnm-73">
          <mxGeometry relative="1" as="geometry">
            <mxPoint x="520" y="-550" as="targetPoint" />
          </mxGeometry>
        </mxCell>
        <mxCell id="E59YueBohIeMxZVzbbnm-80" value="Not valid" style="edgeStyle=orthogonalEdgeStyle;html=1;align=left;verticalAlign=top;endArrow=open;endSize=8;strokeColor=#ff0000;rounded=0;" edge="1" source="E59YueBohIeMxZVzbbnm-78" parent="1" target="E59YueBohIeMxZVzbbnm-82">
          <mxGeometry x="0.2745" y="-20" relative="1" as="geometry">
            <mxPoint x="560" y="-430" as="targetPoint" />
            <mxPoint y="-1" as="offset" />
          </mxGeometry>
        </mxCell>
        <mxCell id="E59YueBohIeMxZVzbbnm-44" value="Vodafone" style="swimlane;startSize=20;html=1;" vertex="1" parent="1">
          <mxGeometry x="30" y="-1050" width="270" height="1520" as="geometry" />
        </mxCell>
        <mxCell id="E59YueBohIeMxZVzbbnm-84" value="Validate wallet&#39;s&lt;div&gt;details&lt;/div&gt;" style="rounded=1;whiteSpace=wrap;html=1;arcSize=40;fontColor=#000000;fillColor=#ffffc0;strokeColor=#ff0000;" vertex="1" parent="E59YueBohIeMxZVzbbnm-44">
          <mxGeometry x="70" y="480" width="120" height="40" as="geometry" />
        </mxCell>
        <mxCell id="E59YueBohIeMxZVzbbnm-85" value="" style="edgeStyle=orthogonalEdgeStyle;html=1;verticalAlign=bottom;endArrow=open;endSize=8;strokeColor=#ff0000;rounded=0;entryX=0.5;entryY=0;entryDx=0;entryDy=0;" edge="1" source="E59YueBohIeMxZVzbbnm-84" parent="E59YueBohIeMxZVzbbnm-44" target="E59YueBohIeMxZVzbbnm-86">
          <mxGeometry relative="1" as="geometry">
            <mxPoint x="135" y="590" as="targetPoint" />
          </mxGeometry>
        </mxCell>
        <mxCell id="E59YueBohIeMxZVzbbnm-86" value="Card&#39;s details" style="rhombus;whiteSpace=wrap;html=1;fontColor=#000000;fillColor=#ffffc0;strokeColor=#ff0000;" vertex="1" parent="E59YueBohIeMxZVzbbnm-44">
          <mxGeometry x="70" y="600" width="120" height="60" as="geometry" />
        </mxCell>
        <mxCell id="E59YueBohIeMxZVzbbnm-92" value="Valid" style="text;html=1;align=center;verticalAlign=middle;resizable=0;points=[];autosize=1;strokeColor=none;fillColor=none;fontSize=11;" vertex="1" parent="E59YueBohIeMxZVzbbnm-44">
          <mxGeometry x="35" y="600" width="50" height="30" as="geometry" />
        </mxCell>
        <mxCell id="E59YueBohIeMxZVzbbnm-134" value="Update balance" style="rounded=1;whiteSpace=wrap;html=1;arcSize=40;fontColor=#000000;fillColor=#ffffc0;strokeColor=#ff0000;" vertex="1" parent="E59YueBohIeMxZVzbbnm-44">
          <mxGeometry x="110" y="1010" width="120" height="40" as="geometry" />
        </mxCell>
        <mxCell id="E59YueBohIeMxZVzbbnm-135" style="edgeStyle=orthogonalEdgeStyle;rounded=0;orthogonalLoop=1;jettySize=auto;html=1;exitX=0.75;exitY=0.5;exitDx=0;exitDy=0;exitPerimeter=0;" edge="1" source="E59YueBohIeMxZVzbbnm-137" parent="E59YueBohIeMxZVzbbnm-44">
          <mxGeometry relative="1" as="geometry">
            <mxPoint x="220" y="1130" as="targetPoint" />
          </mxGeometry>
        </mxCell>
        <mxCell id="E59YueBohIeMxZVzbbnm-136" style="edgeStyle=orthogonalEdgeStyle;rounded=0;orthogonalLoop=1;jettySize=auto;html=1;exitX=0.25;exitY=0.5;exitDx=0;exitDy=0;exitPerimeter=0;entryX=0.655;entryY=0.05;entryDx=0;entryDy=0;entryPerimeter=0;" edge="1" source="E59YueBohIeMxZVzbbnm-137" parent="E59YueBohIeMxZVzbbnm-44" target="E59YueBohIeMxZVzbbnm-142">
          <mxGeometry relative="1" as="geometry">
            <mxPoint x="133" y="1130" as="targetPoint" />
          </mxGeometry>
        </mxCell>
        <mxCell id="E59YueBohIeMxZVzbbnm-137" value="" style="shape=line;html=1;strokeWidth=6;strokeColor=#ff0000;" vertex="1" parent="E59YueBohIeMxZVzbbnm-44">
          <mxGeometry x="85" y="1090" width="170" height="10" as="geometry" />
        </mxCell>
        <mxCell id="E59YueBohIeMxZVzbbnm-138" value="" style="edgeStyle=orthogonalEdgeStyle;html=1;verticalAlign=bottom;endArrow=open;endSize=8;strokeColor=#ff0000;rounded=0;entryX=0.506;entryY=0.8;entryDx=0;entryDy=0;entryPerimeter=0;" edge="1" parent="E59YueBohIeMxZVzbbnm-44" target="E59YueBohIeMxZVzbbnm-137">
          <mxGeometry relative="1" as="geometry">
            <mxPoint x="170" y="1090" as="targetPoint" />
            <mxPoint x="170" y="1050" as="sourcePoint" />
          </mxGeometry>
        </mxCell>
        <mxCell id="E59YueBohIeMxZVzbbnm-141" style="edgeStyle=orthogonalEdgeStyle;rounded=0;orthogonalLoop=1;jettySize=auto;html=1;exitX=0.5;exitY=1;exitDx=0;exitDy=0;" edge="1" parent="E59YueBohIeMxZVzbbnm-44" source="E59YueBohIeMxZVzbbnm-134" target="E59YueBohIeMxZVzbbnm-134">
          <mxGeometry relative="1" as="geometry" />
        </mxCell>
        <mxCell id="E59YueBohIeMxZVzbbnm-142" value="Send mobile&lt;div&gt;message&lt;/div&gt;" style="rounded=1;whiteSpace=wrap;html=1;arcSize=40;fontColor=#000000;fillColor=#ffffc0;strokeColor=#ff0000;" vertex="1" parent="E59YueBohIeMxZVzbbnm-44">
          <mxGeometry x="50" y="1130" width="110" height="40" as="geometry" />
        </mxCell>
        <mxCell id="E59YueBohIeMxZVzbbnm-143" value="Respond to the&lt;div&gt;system&lt;/div&gt;" style="rounded=1;whiteSpace=wrap;html=1;arcSize=40;fontColor=#000000;fillColor=#ffffc0;strokeColor=#ff0000;" vertex="1" parent="E59YueBohIeMxZVzbbnm-44">
          <mxGeometry x="170" y="1130" width="90" height="40" as="geometry" />
        </mxCell>
        <mxCell id="E59YueBohIeMxZVzbbnm-147" value="" style="shape=sumEllipse;perimeter=ellipsePerimeter;whiteSpace=wrap;html=1;backgroundOutline=1;" vertex="1" parent="E59YueBohIeMxZVzbbnm-44">
          <mxGeometry x="77.5" y="1210" width="55" height="50" as="geometry" />
        </mxCell>
        <mxCell id="E59YueBohIeMxZVzbbnm-145" value="" style="edgeStyle=orthogonalEdgeStyle;html=1;verticalAlign=bottom;endArrow=open;endSize=8;strokeColor=#ff0000;rounded=0;exitX=0.5;exitY=1;exitDx=0;exitDy=0;" edge="1" parent="E59YueBohIeMxZVzbbnm-44" source="E59YueBohIeMxZVzbbnm-142" target="E59YueBohIeMxZVzbbnm-147">
          <mxGeometry relative="1" as="geometry">
            <mxPoint x="105" y="1210" as="targetPoint" />
            <mxPoint x="480" y="1230" as="sourcePoint" />
          </mxGeometry>
        </mxCell>
        <mxCell id="E59YueBohIeMxZVzbbnm-70" value="" style="edgeStyle=orthogonalEdgeStyle;html=1;verticalAlign=bottom;endArrow=open;endSize=8;strokeColor=#ff0000;rounded=0;entryX=1;entryY=0.5;entryDx=0;entryDy=0;exitX=0.5;exitY=1;exitDx=0;exitDy=0;" edge="1" source="E59YueBohIeMxZVzbbnm-69" parent="1" target="E59YueBohIeMxZVzbbnm-84">
          <mxGeometry relative="1" as="geometry">
            <mxPoint x="360" y="-550" as="targetPoint" />
            <Array as="points">
              <mxPoint x="360" y="-550" />
            </Array>
          </mxGeometry>
        </mxCell>
        <mxCell id="E59YueBohIeMxZVzbbnm-87" value="Not valid" style="edgeStyle=orthogonalEdgeStyle;html=1;align=left;verticalAlign=bottom;endArrow=open;endSize=8;strokeColor=#ff0000;rounded=0;" edge="1" source="E59YueBohIeMxZVzbbnm-86" parent="1" target="E59YueBohIeMxZVzbbnm-93">
          <mxGeometry x="-1" relative="1" as="geometry">
            <mxPoint x="310" y="-430" as="targetPoint" />
          </mxGeometry>
        </mxCell>
        <mxCell id="E59YueBohIeMxZVzbbnm-79" value="Valid" style="edgeStyle=orthogonalEdgeStyle;html=1;align=left;verticalAlign=bottom;endArrow=open;endSize=8;strokeColor=#ff0000;rounded=0;" edge="1" source="E59YueBohIeMxZVzbbnm-78" parent="1" target="E59YueBohIeMxZVzbbnm-99">
          <mxGeometry x="-1" relative="1" as="geometry">
            <mxPoint x="455" y="-300" as="targetPoint" />
            <Array as="points">
              <mxPoint x="790" y="-420" />
              <mxPoint x="790" y="-300" />
            </Array>
          </mxGeometry>
        </mxCell>
        <mxCell id="E59YueBohIeMxZVzbbnm-91" value="" style="edgeStyle=orthogonalEdgeStyle;html=1;align=left;verticalAlign=bottom;endArrow=open;endSize=8;strokeColor=#ff0000;rounded=0;exitX=0;exitY=0.5;exitDx=0;exitDy=0;" edge="1" parent="1" source="E59YueBohIeMxZVzbbnm-86" target="E59YueBohIeMxZVzbbnm-99">
          <mxGeometry x="-1" relative="1" as="geometry">
            <mxPoint x="70" y="-370" as="targetPoint" />
            <mxPoint x="50" y="-360" as="sourcePoint" />
            <Array as="points">
              <mxPoint x="80" y="-420" />
              <mxPoint x="80" y="-300" />
            </Array>
          </mxGeometry>
        </mxCell>
        <mxCell id="E59YueBohIeMxZVzbbnm-112" value="" style="edgeStyle=orthogonalEdgeStyle;html=1;verticalAlign=bottom;endArrow=open;endSize=8;strokeColor=#ff0000;rounded=0;entryX=0;entryY=0.5;entryDx=0;entryDy=0;exitX=0.5;exitY=1;exitDx=0;exitDy=0;" edge="1" source="E59YueBohIeMxZVzbbnm-111" parent="1" target="E59YueBohIeMxZVzbbnm-113">
          <mxGeometry relative="1" as="geometry">
            <mxPoint x="490" as="targetPoint" />
          </mxGeometry>
        </mxCell>
        <mxCell id="E59YueBohIeMxZVzbbnm-127" value="" style="edgeStyle=orthogonalEdgeStyle;html=1;verticalAlign=bottom;endArrow=open;endSize=8;strokeColor=#ff0000;rounded=0;" edge="1" source="E59YueBohIeMxZVzbbnm-126" parent="1" target="E59YueBohIeMxZVzbbnm-152">
          <mxGeometry relative="1" as="geometry">
            <mxPoint x="540" y="150" as="targetPoint" />
            <Array as="points">
              <mxPoint x="655" y="150" />
            </Array>
          </mxGeometry>
        </mxCell>
        <mxCell id="E59YueBohIeMxZVzbbnm-133" value="" style="edgeStyle=orthogonalEdgeStyle;html=1;verticalAlign=bottom;endArrow=open;endSize=8;strokeColor=#ff0000;rounded=0;exitX=0.5;exitY=1;exitDx=0;exitDy=0;" edge="1" parent="1" source="E59YueBohIeMxZVzbbnm-131" target="E59YueBohIeMxZVzbbnm-134">
          <mxGeometry relative="1" as="geometry">
            <mxPoint x="260" y="-20" as="targetPoint" />
            <mxPoint x="325" y="-20" as="sourcePoint" />
            <Array as="points">
              <mxPoint x="365" y="-20" />
            </Array>
          </mxGeometry>
        </mxCell>
        <mxCell id="E59YueBohIeMxZVzbbnm-148" value="" style="edgeStyle=orthogonalEdgeStyle;html=1;verticalAlign=bottom;endArrow=open;endSize=8;strokeColor=#ff0000;rounded=0;exitX=0.5;exitY=1;exitDx=0;exitDy=0;" edge="1" parent="1" source="E59YueBohIeMxZVzbbnm-143" target="E59YueBohIeMxZVzbbnm-154">
          <mxGeometry relative="1" as="geometry">
            <mxPoint x="330" y="150" as="targetPoint" />
            <mxPoint x="510" y="180" as="sourcePoint" />
            <Array as="points">
              <mxPoint x="245" y="150" />
            </Array>
          </mxGeometry>
        </mxCell>
      </root>
    </mxGraphModel>
  </diagram>
</mxfile>
